# xmcd
#
# Track frame offsets:
#	150
#	13800
#	30165
#	49293
#	76043
#	89011
#	104732
#	121018
#	139452
#	156049
#
# Disc length: 2258 seconds
#
# Revision: 1
# Processed by: cddbd v1.5.1PL2 Copyright (c) Steve Scherf et al.
# Submitted via: audiograbber 1.83.01
#
DISCID=7b08d00a
DTITLE=Ronny Hinson - ...The Song Lives On
DYEAR=1999
DGENRE=Southern Gospel
TTITLE0=Did It Ever Just Occur To You
TTITLE1=Fountain Of Youth
TTITLE2=A Real Move Of God
TTITLE3=At The Resurrection
TTITLE4=I Believe Your Prayer Can Touch The Throne
TTITLE5=Gethsemane
TTITLE6=Point Of No Concern
TTITLE7=The Apple Of His Eye
TTITLE8=I've Been Back To Calvary Again
TTITLE9=I'm Gonna Make It
EXTD=
EXTT0=
EXTT1=
EXTT2=
EXTT3=
EXTT4=
EXTT5=
EXTT6=
EXTT7=
EXTT8=
EXTT9=
PLAYORDER=
